<svg width="73" height="79" viewBox="0 0 73 79" fill="none" xmlns="http://www.w3.org/2000/svg">
<g filter="url(#filter0_d_103_804)">
<path d="M18 62H54C54 67.9909 50.2176 73.329 44.5654 75.3149L41.5231 76.3838C37.6309 77.7513 33.3828 77.7136 29.5154 76.2772L27.3743 75.4819C21.7389 73.3888 18 68.0115 18 62Z" fill="#1ED760"/>
</g>
<g filter="url(#filter1_b_103_804)">
<circle cx="36.5" cy="36.5" r="36.5" fill="#F0F0F0" fill-opacity="0.1"/>
</g>
<path d="M36.4044 37.5833C42.4044 47.9756 53.6769 44.9315 46.5025 49.0736C39.3281 53.2158 30.1543 50.7576 26.0121 43.5833C21.87 36.4089 24.3281 27.235 31.5025 23.0929C38.6769 18.9507 30.4044 27.1909 36.4044 37.5833Z" stroke="#F0F0F0" stroke-width="1.5"/>
<defs>
<filter id="filter0_d_103_804" x="14" y="47" width="44" height="30.3827" filterUnits="userSpaceOnUse" color-interpolation-filters="sRGB">
<feFlood flood-opacity="0" result="BackgroundImageFix"/>
<feColorMatrix in="SourceAlpha" type="matrix" values="0 0 0 0 0 0 0 0 0 0 0 0 0 0 0 0 0 0 127 0" result="hardAlpha"/>
<feOffset dy="-11"/>
<feGaussianBlur stdDeviation="2"/>
<feComposite in2="hardAlpha" operator="out"/>
<feColorMatrix type="matrix" values="0 0 0 0 0.384314 0 0 0 0 0.803922 0 0 0 0 0.364706 0 0 0 1 0"/>
<feBlend mode="normal" in2="BackgroundImageFix" result="effect1_dropShadow_103_804"/>
<feBlend mode="normal" in="SourceGraphic" in2="effect1_dropShadow_103_804" result="shape"/>
</filter>
<filter id="filter1_b_103_804" x="-87" y="-87" width="247" height="247" filterUnits="userSpaceOnUse" color-interpolation-filters="sRGB">
<feFlood flood-opacity="0" result="BackgroundImageFix"/>
<feGaussianBlur in="BackgroundImageFix" stdDeviation="43.5"/>
<feComposite in2="SourceAlpha" operator="in" result="effect1_backgroundBlur_103_804"/>
<feBlend mode="normal" in="SourceGraphic" in2="effect1_backgroundBlur_103_804" result="shape"/>
</filter>
</defs>
</svg>
