<svg width="32" height="32" viewBox="0 0 32 32" fill="none" xmlns="http://www.w3.org/2000/svg">
<path d="M16 30.3333C8.09335 30.3333 1.66669 23.9067 1.66669 16C1.66669 8.09332 8.09335 1.66666 16 1.66666C23.9067 1.66666 30.3334 8.09332 30.3334 16C30.3334 23.9067 23.9067 30.3333 16 30.3333ZM16 3.66666C9.20002 3.66666 3.66669 9.19999 3.66669 16C3.66669 22.8 9.20002 28.3333 16 28.3333C22.8 28.3333 28.3334 22.8 28.3334 16C28.3334 9.19999 22.8 3.66666 16 3.66666Z" fill="white" fill-opacity="0.6"/>
<path d="M20.9467 21.24C20.7734 21.24 20.6 21.2 20.44 21.0933L16.3067 18.6267C15.28 18.0133 14.52 16.6667 14.52 15.48V10.0133C14.52 9.46667 14.9734 9.01334 15.52 9.01334C16.0667 9.01334 16.52 9.46667 16.52 10.0133V15.48C16.52 15.96 16.92 16.6667 17.3334 16.9067L21.4667 19.3733C21.9467 19.6533 22.0934 20.2667 21.8134 20.7467C21.6134 21.0667 21.28 21.24 20.9467 21.24Z" fill="white" fill-opacity="0.6"/>
</svg>
