<svg width="73" height="73" viewBox="0 0 73 73" fill="none" xmlns="http://www.w3.org/2000/svg">
<g filter="url(#filter0_b_103_811)">
<circle cx="36.5" cy="36.5" r="36.5" fill="#333333"/>
</g>
<g clip-path="url(#clip0_103_811)">
<path d="M36 23.3333V26M36 50V52.6667M50.6667 38H48M24 38H21.3334M46.3709 27.6291L44.4853 29.5147M27.5148 46.4853L25.6291 48.3709M46.3709 48.3709L44.4853 46.4853M27.5148 29.5147L25.6291 27.6291M44 38C44 42.4183 40.4183 46 36 46C31.5818 46 28 42.4183 28 38C28 33.5817 31.5818 30 36 30C40.4183 30 44 33.5817 44 38Z" stroke="white" stroke-width="1.5" stroke-linecap="round"/>
</g>
<defs>
<filter id="filter0_b_103_811" x="-87" y="-87" width="247" height="247" filterUnits="userSpaceOnUse" color-interpolation-filters="sRGB">
<feFlood flood-opacity="0" result="BackgroundImageFix"/>
<feGaussianBlur in="BackgroundImageFix" stdDeviation="43.5"/>
<feComposite in2="SourceAlpha" operator="in" result="effect1_backgroundBlur_103_811"/>
<feBlend mode="normal" in="SourceGraphic" in2="effect1_backgroundBlur_103_811" result="shape"/>
</filter>
<clipPath id="clip0_103_811">
<rect width="32" height="32" fill="white" transform="translate(20 22)"/>
</clipPath>
</defs>
</svg>
