<svg width="16" height="16" viewBox="0 0 16 16" fill="none" xmlns="http://www.w3.org/2000/svg">
<path d="M9.83332 12.6667C9.83332 13.68 9.01332 14.5 7.99999 14.5C6.98666 14.5 6.16666 13.68 6.16666 12.6667C6.16666 11.6533 6.98666 10.8333 7.99999 10.8333C9.01332 10.8333 9.83332 11.6533 9.83332 12.6667ZM7.16666 12.6667C7.16666 13.1267 7.53999 13.5 7.99999 13.5C8.45999 13.5 8.83332 13.1267 8.83332 12.6667C8.83332 12.2067 8.45999 11.8333 7.99999 11.8333C7.53999 11.8333 7.16666 12.2067 7.16666 12.6667Z" fill="white"/>
<path d="M9.83332 3.33334C9.83332 4.34667 9.01332 5.16667 7.99999 5.16667C6.98666 5.16667 6.16666 4.34667 6.16666 3.33334C6.16666 2.32 6.98666 1.50001 7.99999 1.50001C9.01332 1.50001 9.83332 2.32 9.83332 3.33334ZM7.16666 3.33334C7.16666 3.79334 7.53999 4.16667 7.99999 4.16667C8.45999 4.16667 8.83332 3.79334 8.83332 3.33334C8.83332 2.87334 8.45999 2.50001 7.99999 2.50001C7.53999 2.50001 7.16666 2.87334 7.16666 3.33334Z" fill="white"/>
<path d="M9.83332 7.99999C9.83332 9.01333 9.01332 9.83333 7.99999 9.83333C6.98666 9.83333 6.16666 9.01333 6.16666 7.99999C6.16666 6.98666 6.98666 6.16666 7.99999 6.16666C9.01332 6.16666 9.83332 6.98666 9.83332 7.99999ZM7.16666 7.99999C7.16666 8.45999 7.53999 8.83333 7.99999 8.83333C8.45999 8.83333 8.83332 8.45999 8.83332 7.99999C8.83332 7.53999 8.45999 7.16666 7.99999 7.16666C7.53999 7.16666 7.16666 7.53999 7.16666 7.99999Z" fill="white"/>
</svg>
